<svg width="36" height="36" viewBox="0 0 36 36" fill="none" xmlns="http://www.w3.org/2000/svg">
<g filter="url(#filter0_d_160_129)">
<path d="M29 0H7C5.3125 0 4 1.375 4 3V25C4 26.6875 5.3125 28 7 28H29C30.625 28 32 26.6875 32 25V3C32 1.375 30.625 0 29 0ZM19.1875 21.875C19.1875 24.5625 17.625 25.8125 15.25 25.8125C13.1875 25.8125 11.9375 24.75 11.3125 23.4375L13.5 22.125C13.875 22.875 14.25 23.5 15.1875 23.5C16 23.5 16.5625 23.125 16.5625 21.8125V12.875H19.1875V21.875ZM25.4375 25.8125C23 25.8125 21.4375 24.6875 20.625 23.125L22.8125 21.9375C23.375 22.8125 24.0625 23.5 25.375 23.5C26.4375 23.5 27.1875 22.9375 27.1875 22.1875C27.1875 21.3125 26.4375 21 25.25 20.4375L24.5625 20.1875C22.6875 19.375 21.4375 18.375 21.4375 16.1875C21.4375 14.25 22.9375 12.75 25.3125 12.75C26.9375 12.75 28.1875 13.3125 29 14.8125L27 16.125C26.5 15.375 26.0625 15 25.25 15C24.5 15 24 15.5 24 16.125C24 16.9375 24.5 17.25 25.625 17.75L26.3125 18.0625C28.5625 19 29.8125 20 29.8125 22.1875C29.8125 24.5625 27.9375 25.8125 25.4375 25.8125Z" fill="#2A7AE4"/>
</g>
<defs>
<filter id="filter0_d_160_129" x="0" y="0" width="36" height="36" filterUnits="userSpaceOnUse" color-interpolation-filters="sRGB">
<feFlood flood-opacity="0" result="BackgroundImageFix"/>
<feColorMatrix in="SourceAlpha" type="matrix" values="0 0 0 0 0 0 0 0 0 0 0 0 0 0 0 0 0 0 127 0" result="hardAlpha"/>
<feOffset dy="4"/>
<feGaussianBlur stdDeviation="2"/>
<feComposite in2="hardAlpha" operator="out"/>
<feColorMatrix type="matrix" values="0 0 0 0 0 0 0 0 0 0 0 0 0 0 0 0 0 0 0.25 0"/>
<feBlend mode="normal" in2="BackgroundImageFix" result="effect1_dropShadow_160_129"/>
<feBlend mode="normal" in="SourceGraphic" in2="effect1_dropShadow_160_129" result="shape"/>
</filter>
</defs>
</svg>
